<svg width="75" height="75" viewBox="0 0 75 75" fill="none" xmlns="http://www.w3.org/2000/svg">
<g clip-path="url(#clip0_7_2)">
<mask id="path-1-outside-1_7_2" maskUnits="userSpaceOnUse" x="8" y="13" width="59" height="55" fill="black">
<rect fill="white" x="8" y="13" width="59" height="55"/>
<path d="M22.564 62C22.052 62 21.6253 61.8187 21.284 61.456L14.884 55.056C14.5213 54.7147 14.34 54.288 14.34 53.776V20.144C14.34 19.6107 14.6067 19.344 15.14 19.344H24.196C24.7293 19.344 24.996 19.6107 24.996 20.144V53.424H32.164V20.144C32.164 19.6107 32.4307 19.344 32.964 19.344H42.02C42.5533 19.344 42.82 19.6107 42.82 20.144V53.424H49.956V20.144C49.956 19.6107 50.2227 19.344 50.756 19.344H59.844C60.3773 19.344 60.644 19.6107 60.644 20.144V53.776C60.644 54.288 60.4627 54.7147 60.1 55.056L53.7 61.456C53.3373 61.8187 52.9107 62 52.42 62H44.9C44.4093 62 43.9827 61.8187 43.62 61.456L38.244 56.08H36.74L31.364 61.456C31.0013 61.8187 30.5747 62 30.084 62H22.564Z"/>
</mask>
<path d="M22.564 62C22.052 62 21.6253 61.8187 21.284 61.456L14.884 55.056C14.5213 54.7147 14.34 54.288 14.34 53.776V20.144C14.34 19.6107 14.6067 19.344 15.14 19.344H24.196C24.7293 19.344 24.996 19.6107 24.996 20.144V53.424H32.164V20.144C32.164 19.6107 32.4307 19.344 32.964 19.344H42.02C42.5533 19.344 42.82 19.6107 42.82 20.144V53.424H49.956V20.144C49.956 19.6107 50.2227 19.344 50.756 19.344H59.844C60.3773 19.344 60.644 19.6107 60.644 20.144V53.776C60.644 54.288 60.4627 54.7147 60.1 55.056L53.7 61.456C53.3373 61.8187 52.9107 62 52.42 62H44.9C44.4093 62 43.9827 61.8187 43.62 61.456L38.244 56.08H36.74L31.364 61.456C31.0013 61.8187 30.5747 62 30.084 62H22.564Z" fill="white"/>
<path d="M21.284 61.456L25.6532 57.3438L25.5909 57.2776L25.5266 57.2134L21.284 61.456ZM14.884 55.056L19.1266 50.8134L19.0624 50.7491L18.9962 50.6868L14.884 55.056ZM24.996 53.424H18.996V59.424H24.996V53.424ZM32.164 53.424V59.424H38.164V53.424H32.164ZM42.82 53.424H36.82V59.424H42.82V53.424ZM49.956 53.424V59.424H55.956V53.424H49.956ZM60.1 55.056L55.9878 50.6868L55.9216 50.7491L55.8574 50.8134L60.1 55.056ZM53.7 61.456L49.4574 57.2134L49.4574 57.2134L53.7 61.456ZM43.62 61.456L47.8626 57.2134L47.8626 57.2134L43.62 61.456ZM38.244 56.08L42.4866 51.8374L40.7293 50.08H38.244V56.08ZM36.74 56.08V50.08H34.2547L32.4974 51.8374L36.74 56.08ZM31.364 61.456L27.1214 57.2134L27.1214 57.2134L31.364 61.456ZM22.564 56C23.0299 56 23.6039 56.0858 24.2068 56.342C24.8135 56.5998 25.2975 56.9658 25.6532 57.3438L16.9148 65.5682C18.4254 67.1732 20.4501 68 22.564 68V56ZM25.5266 57.2134L19.1266 50.8134L10.6414 59.2986L17.0414 65.6986L25.5266 57.2134ZM18.9962 50.6868C19.3742 51.0425 19.7402 51.5265 19.998 52.1332C20.2542 52.7361 20.34 53.3101 20.34 53.776H8.34C8.34 55.8899 9.16677 57.9146 10.7718 59.4252L18.9962 50.6868ZM20.34 53.776V20.144H8.34V53.776H20.34ZM20.34 20.144C20.34 20.8022 20.1714 22.3979 18.7826 23.7866C17.3939 25.1754 15.7982 25.344 15.14 25.344V13.344C13.9485 13.344 11.9528 13.6459 10.2974 15.3014C8.64195 16.9568 8.34 18.9525 8.34 20.144H20.34ZM15.14 25.344H24.196V13.344H15.14V25.344ZM24.196 25.344C23.5378 25.344 21.9421 25.1754 20.5534 23.7866C19.1646 22.3979 18.996 20.8022 18.996 20.144H30.996C30.996 18.9525 30.6941 16.9568 29.0386 15.3014C27.3832 13.6459 25.3875 13.344 24.196 13.344V25.344ZM18.996 20.144V53.424H30.996V20.144H18.996ZM24.996 59.424H32.164V47.424H24.996V59.424ZM38.164 53.424V20.144H26.164V53.424H38.164ZM38.164 20.144C38.164 20.8022 37.9954 22.3979 36.6066 23.7866C35.2179 25.1754 33.6222 25.344 32.964 25.344V13.344C31.7725 13.344 29.7768 13.6459 28.1214 15.3014C26.4659 16.9568 26.164 18.9525 26.164 20.144H38.164ZM32.964 25.344H42.02V13.344H32.964V25.344ZM42.02 25.344C41.3618 25.344 39.7661 25.1754 38.3774 23.7866C36.9886 22.3979 36.82 20.8022 36.82 20.144H48.82C48.82 18.9525 48.5181 16.9568 46.8626 15.3014C45.2072 13.6459 43.2115 13.344 42.02 13.344V25.344ZM36.82 20.144V53.424H48.82V20.144H36.82ZM42.82 59.424H49.956V47.424H42.82V59.424ZM55.956 53.424V20.144H43.956V53.424H55.956ZM55.956 20.144C55.956 20.8022 55.7874 22.3979 54.3986 23.7866C53.0099 25.1754 51.4142 25.344 50.756 25.344V13.344C49.5645 13.344 47.5688 13.6459 45.9134 15.3014C44.2579 16.9568 43.956 18.9525 43.956 20.144H55.956ZM50.756 25.344H59.844V13.344H50.756V25.344ZM59.844 25.344C59.1858 25.344 57.5901 25.1754 56.2014 23.7866C54.8126 22.3979 54.644 20.8022 54.644 20.144H66.644C66.644 18.9525 66.3421 16.9568 64.6866 15.3014C63.0312 13.6459 61.0355 13.344 59.844 13.344V25.344ZM54.644 20.144V53.776H66.644V20.144H54.644ZM54.644 53.776C54.644 53.3101 54.7298 52.7361 54.986 52.1332C55.2438 51.5265 55.6098 51.0425 55.9878 50.6868L64.2122 59.4252C65.8172 57.9146 66.644 55.8899 66.644 53.776H54.644ZM55.8574 50.8134L49.4574 57.2134L57.9426 65.6986L64.3426 59.2986L55.8574 50.8134ZM49.4574 57.2134C49.7622 56.9085 50.1947 56.5827 50.7612 56.342C51.3328 56.0991 51.9067 56 52.42 56V68C54.5805 68 56.5115 67.1297 57.9426 65.6986L49.4574 57.2134ZM52.42 56H44.9V68H52.42V56ZM44.9 56C45.4133 56 45.9872 56.0991 46.5588 56.342C47.1253 56.5827 47.5578 56.9085 47.8626 57.2134L39.3774 65.6986C40.8085 67.1297 42.7395 68 44.9 68V56ZM47.8626 57.2134L42.4866 51.8374L34.0014 60.3226L39.3774 65.6986L47.8626 57.2134ZM38.244 50.08H36.74V62.08H38.244V50.08ZM32.4974 51.8374L27.1214 57.2134L35.6066 65.6986L40.9826 60.3226L32.4974 51.8374ZM27.1214 57.2134C27.4262 56.9085 27.8587 56.5827 28.4252 56.342C28.9968 56.0991 29.5707 56 30.084 56V68C32.2445 68 34.1755 67.1297 35.6066 65.6986L27.1214 57.2134ZM30.084 56H22.564V68H30.084V56Z" fill="#FF0000" mask="url(#path-1-outside-1_7_2)"/>
</g>
<defs>
<clipPath id="clip0_7_2">
<rect width="75" height="75" fill="white"/>
</clipPath>
</defs>
</svg>
