<svg width="316" height="75" viewBox="0 0 316 75" fill="none" xmlns="http://www.w3.org/2000/svg">
<g clip-path="url(#clip0_4_2)">
<circle cx="287" cy="31" r="6" fill="#FF0000"/>
<mask id="path-2-outside-1_4_2" maskUnits="userSpaceOnUse" x="8" y="10" width="301" height="55" fill="black">
<rect fill="white" x="8" y="10" width="301" height="55"/>
<path d="M22.3568 59C21.8661 59 21.4394 58.8187 21.0768 58.456L14.6768 52.056C14.3354 51.7147 14.1648 51.288 14.1648 50.776V17.144C14.1648 16.6107 14.4314 16.344 14.9648 16.344H26.2928C26.8261 16.344 27.0928 16.6107 27.0928 17.144V44.504H30.4208V17.144C30.4208 16.6107 30.6874 16.344 31.2208 16.344H42.5488C43.0821 16.344 43.3488 16.6107 43.3488 17.144V44.504H46.6448V17.144C46.6448 16.6107 46.9114 16.344 47.4448 16.344H58.8048C59.3381 16.344 59.6048 16.6107 59.6048 17.144V50.776C59.6048 51.288 59.4341 51.7147 59.0928 52.056L52.6928 58.456C52.3301 58.8187 51.9034 59 51.4128 59H44.3088C43.7968 59 43.3701 58.8187 43.0288 58.456L37.6208 53.08H36.1488L30.7408 58.456C30.3994 58.8187 29.9728 59 29.4608 59H22.3568ZM63.7773 59C63.2439 59 62.9773 58.7333 62.9773 58.2V17.144C62.9773 16.6107 63.2439 16.344 63.7773 16.344H75.1053C75.6386 16.344 75.9053 16.6107 75.9053 17.144V58.2C75.9053 58.7333 75.6386 59 75.1053 59H63.7773ZM80.0898 59C79.5564 59 79.2898 58.7333 79.2898 58.2V17.144C79.2898 16.6107 79.5564 16.344 80.0898 16.344H91.4178C91.9511 16.344 92.2178 16.6107 92.2178 17.144V30.264H93.1778L95.2578 22.264L96.5698 16.76C96.6124 16.568 96.7404 16.4507 96.9538 16.408C97.1671 16.3653 97.3804 16.344 97.5938 16.344H108.186C108.719 16.344 108.986 16.6107 108.986 17.144V24.824C108.986 25.016 108.943 25.1973 108.858 25.368C108.772 25.5173 108.687 25.688 108.602 25.88L104.058 36.12L103.258 37.624L104.09 39.192L109.402 49.912C109.508 50.0827 109.572 50.264 109.594 50.456C109.636 50.6267 109.658 50.8507 109.658 51.128V58.2C109.658 58.7333 109.391 59 108.858 59H98.1058C97.9351 59 97.7431 58.968 97.5298 58.904C97.3378 58.84 97.2098 58.712 97.1458 58.52L95.1298 52.024L93.2738 46.392H92.2178V58.2C92.2178 58.7333 91.9511 59 91.4178 59H80.0898ZM113.652 59C113.119 59 112.852 58.7333 112.852 58.2V17.144C112.852 16.6107 113.119 16.344 113.652 16.344H124.98C125.514 16.344 125.78 16.6107 125.78 17.144V58.2C125.78 58.7333 125.514 59 124.98 59H113.652ZM137.357 59C136.866 59 136.439 58.8187 136.077 58.456L129.677 52.056C129.335 51.7147 129.165 51.288 129.165 50.776V24.536C129.165 24.0453 129.335 23.6187 129.677 23.256L136.077 16.856C136.439 16.5147 136.866 16.344 137.357 16.344H156.653C157.186 16.344 157.453 16.6107 157.453 17.144V27.768C157.453 28.3013 157.186 28.568 156.653 28.568H143.181C142.882 28.568 142.626 28.6747 142.413 28.888C142.199 29.08 142.093 29.3253 142.093 29.624V45.72C142.093 45.9973 142.199 46.2427 142.413 46.456C142.626 46.6693 142.882 46.776 143.181 46.776H148.045V41.528L145.165 41.464C144.631 41.464 144.365 41.1973 144.365 40.664V32.824C144.365 32.2907 144.631 32.024 145.165 32.024H158.701C159.234 32.024 159.501 32.2907 159.501 32.824V50.776C159.501 51.288 159.319 51.7147 158.957 52.056L152.557 58.456C152.215 58.8187 151.789 59 151.277 59H137.357ZM170.857 59C170.366 59 169.939 58.8187 169.577 58.456L163.177 52.056C162.835 51.7147 162.665 51.288 162.665 50.776V17.144C162.665 16.6107 162.931 16.344 163.465 16.344H174.793C175.326 16.344 175.593 16.6107 175.593 17.144V45.528C175.593 46.36 176.009 46.776 176.841 46.776H178.729V17.144C178.729 16.6107 178.995 16.344 179.529 16.344H190.889C191.422 16.344 191.689 16.6107 191.689 17.144V58.2C191.689 58.7333 191.422 59 190.889 59H170.857ZM195.84 59C195.306 59 195.04 58.7333 195.04 58.2V17.144C195.04 16.6107 195.306 16.344 195.84 16.344H218.112C218.645 16.344 218.912 16.6107 218.912 17.144V27.768C218.912 28.3013 218.645 28.568 218.112 28.568H207.968V32.088H217.952C218.485 32.088 218.752 32.3547 218.752 32.888V42.456C218.752 42.9893 218.485 43.256 217.952 43.256H207.968V46.776H218.112C218.645 46.776 218.912 47.0427 218.912 47.576V58.2C218.912 58.7333 218.645 59 218.112 59H195.84ZM222.962 59C222.428 59 222.162 58.7333 222.162 58.2V49.592C222.162 49.336 222.172 49.1333 222.194 48.984C222.236 48.8133 222.364 48.664 222.578 48.536L229.586 44.632V42.456L222.674 38.744C222.332 38.5307 222.162 38.2107 222.162 37.784V23.736C222.162 23.3947 222.183 23.1493 222.226 23C222.268 22.8293 222.418 22.648 222.674 22.456L231.122 16.76C231.292 16.632 231.474 16.536 231.666 16.472C231.858 16.3867 232.103 16.344 232.402 16.344H243.314C243.847 16.344 244.114 16.6107 244.114 17.144V26.072C244.114 26.5413 243.954 26.8613 243.634 27.032L235.25 30.68V32.92L243.634 37.72C243.954 37.8693 244.114 38.2107 244.114 38.744V52.664C244.114 52.8347 244.082 53.016 244.018 53.208C243.975 53.3787 243.868 53.5173 243.698 53.624L233.65 58.616C233.522 58.7013 233.362 58.7867 233.17 58.872C232.999 58.9573 232.828 59 232.658 59H222.962ZM248.024 59C247.491 59 247.224 58.7333 247.224 58.2V49.592C247.224 49.336 247.235 49.1333 247.256 48.984C247.299 48.8133 247.427 48.664 247.64 48.536L254.648 44.632V42.456L247.736 38.744C247.395 38.5307 247.224 38.2107 247.224 37.784V23.736C247.224 23.3947 247.246 23.1493 247.288 23C247.331 22.8293 247.48 22.648 247.736 22.456L256.184 16.76C256.355 16.632 256.536 16.536 256.728 16.472C256.92 16.3867 257.166 16.344 257.464 16.344H268.376C268.91 16.344 269.176 16.6107 269.176 17.144V26.072C269.176 26.5413 269.016 26.8613 268.696 27.032L260.312 30.68V32.92L268.696 37.72C269.016 37.8693 269.176 38.2107 269.176 38.744V52.664C269.176 52.8347 269.144 53.016 269.08 53.208C269.038 53.3787 268.931 53.5173 268.76 53.624L258.712 58.616C258.584 58.7013 258.424 58.7867 258.232 58.872C258.062 58.9573 257.891 59 257.72 59H248.024ZM273.215 59C272.681 59 272.415 58.7333 272.415 58.2V17.144C272.415 16.6107 272.681 16.344 273.215 16.344H292.447C293.001 16.344 293.428 16.4827 293.727 16.76L301.087 24.056C301.321 24.2693 301.471 24.4507 301.535 24.6C301.599 24.7493 301.631 24.9947 301.631 25.336V34.104C301.631 34.3813 301.46 34.6907 301.119 35.032L296.831 39.32L295.807 40.216L298.015 43.416L301.951 51.128C302.057 51.32 302.121 51.512 302.143 51.704C302.185 51.8747 302.207 52.088 302.207 52.344V58.2C302.207 58.7333 301.94 59 301.407 59H291.519C291.049 59 290.729 58.7867 290.559 58.36L286.079 46.584H285.279V58.2C285.279 58.7333 285.012 59 284.479 59H273.215ZM287.007 33.976C288.009 33.976 288.788 33.688 289.343 33.112C289.897 32.536 290.175 31.736 290.175 30.712C290.175 29.688 289.897 28.8987 289.343 28.344C288.788 27.768 288.009 27.48 287.007 27.48C286.025 27.48 285.257 27.768 284.703 28.344C284.148 28.8987 283.871 29.688 283.871 30.712C283.871 31.736 284.148 32.536 284.703 33.112C285.257 33.688 286.025 33.976 287.007 33.976Z"/>
</mask>
<path d="M22.3568 59C21.8661 59 21.4394 58.8187 21.0768 58.456L14.6768 52.056C14.3354 51.7147 14.1648 51.288 14.1648 50.776V17.144C14.1648 16.6107 14.4314 16.344 14.9648 16.344H26.2928C26.8261 16.344 27.0928 16.6107 27.0928 17.144V44.504H30.4208V17.144C30.4208 16.6107 30.6874 16.344 31.2208 16.344H42.5488C43.0821 16.344 43.3488 16.6107 43.3488 17.144V44.504H46.6448V17.144C46.6448 16.6107 46.9114 16.344 47.4448 16.344H58.8048C59.3381 16.344 59.6048 16.6107 59.6048 17.144V50.776C59.6048 51.288 59.4341 51.7147 59.0928 52.056L52.6928 58.456C52.3301 58.8187 51.9034 59 51.4128 59H44.3088C43.7968 59 43.3701 58.8187 43.0288 58.456L37.6208 53.08H36.1488L30.7408 58.456C30.3994 58.8187 29.9728 59 29.4608 59H22.3568ZM63.7773 59C63.2439 59 62.9773 58.7333 62.9773 58.2V17.144C62.9773 16.6107 63.2439 16.344 63.7773 16.344H75.1053C75.6386 16.344 75.9053 16.6107 75.9053 17.144V58.2C75.9053 58.7333 75.6386 59 75.1053 59H63.7773ZM80.0898 59C79.5564 59 79.2898 58.7333 79.2898 58.2V17.144C79.2898 16.6107 79.5564 16.344 80.0898 16.344H91.4178C91.9511 16.344 92.2178 16.6107 92.2178 17.144V30.264H93.1778L95.2578 22.264L96.5698 16.76C96.6124 16.568 96.7404 16.4507 96.9538 16.408C97.1671 16.3653 97.3804 16.344 97.5938 16.344H108.186C108.719 16.344 108.986 16.6107 108.986 17.144V24.824C108.986 25.016 108.943 25.1973 108.858 25.368C108.772 25.5173 108.687 25.688 108.602 25.88L104.058 36.12L103.258 37.624L104.09 39.192L109.402 49.912C109.508 50.0827 109.572 50.264 109.594 50.456C109.636 50.6267 109.658 50.8507 109.658 51.128V58.2C109.658 58.7333 109.391 59 108.858 59H98.1058C97.9351 59 97.7431 58.968 97.5298 58.904C97.3378 58.84 97.2098 58.712 97.1458 58.52L95.1298 52.024L93.2738 46.392H92.2178V58.2C92.2178 58.7333 91.9511 59 91.4178 59H80.0898ZM113.652 59C113.119 59 112.852 58.7333 112.852 58.2V17.144C112.852 16.6107 113.119 16.344 113.652 16.344H124.98C125.514 16.344 125.78 16.6107 125.78 17.144V58.2C125.78 58.7333 125.514 59 124.98 59H113.652ZM137.357 59C136.866 59 136.439 58.8187 136.077 58.456L129.677 52.056C129.335 51.7147 129.165 51.288 129.165 50.776V24.536C129.165 24.0453 129.335 23.6187 129.677 23.256L136.077 16.856C136.439 16.5147 136.866 16.344 137.357 16.344H156.653C157.186 16.344 157.453 16.6107 157.453 17.144V27.768C157.453 28.3013 157.186 28.568 156.653 28.568H143.181C142.882 28.568 142.626 28.6747 142.413 28.888C142.199 29.08 142.093 29.3253 142.093 29.624V45.72C142.093 45.9973 142.199 46.2427 142.413 46.456C142.626 46.6693 142.882 46.776 143.181 46.776H148.045V41.528L145.165 41.464C144.631 41.464 144.365 41.1973 144.365 40.664V32.824C144.365 32.2907 144.631 32.024 145.165 32.024H158.701C159.234 32.024 159.501 32.2907 159.501 32.824V50.776C159.501 51.288 159.319 51.7147 158.957 52.056L152.557 58.456C152.215 58.8187 151.789 59 151.277 59H137.357ZM170.857 59C170.366 59 169.939 58.8187 169.577 58.456L163.177 52.056C162.835 51.7147 162.665 51.288 162.665 50.776V17.144C162.665 16.6107 162.931 16.344 163.465 16.344H174.793C175.326 16.344 175.593 16.6107 175.593 17.144V45.528C175.593 46.36 176.009 46.776 176.841 46.776H178.729V17.144C178.729 16.6107 178.995 16.344 179.529 16.344H190.889C191.422 16.344 191.689 16.6107 191.689 17.144V58.2C191.689 58.7333 191.422 59 190.889 59H170.857ZM195.84 59C195.306 59 195.04 58.7333 195.04 58.2V17.144C195.04 16.6107 195.306 16.344 195.84 16.344H218.112C218.645 16.344 218.912 16.6107 218.912 17.144V27.768C218.912 28.3013 218.645 28.568 218.112 28.568H207.968V32.088H217.952C218.485 32.088 218.752 32.3547 218.752 32.888V42.456C218.752 42.9893 218.485 43.256 217.952 43.256H207.968V46.776H218.112C218.645 46.776 218.912 47.0427 218.912 47.576V58.2C218.912 58.7333 218.645 59 218.112 59H195.84ZM222.962 59C222.428 59 222.162 58.7333 222.162 58.2V49.592C222.162 49.336 222.172 49.1333 222.194 48.984C222.236 48.8133 222.364 48.664 222.578 48.536L229.586 44.632V42.456L222.674 38.744C222.332 38.5307 222.162 38.2107 222.162 37.784V23.736C222.162 23.3947 222.183 23.1493 222.226 23C222.268 22.8293 222.418 22.648 222.674 22.456L231.122 16.76C231.292 16.632 231.474 16.536 231.666 16.472C231.858 16.3867 232.103 16.344 232.402 16.344H243.314C243.847 16.344 244.114 16.6107 244.114 17.144V26.072C244.114 26.5413 243.954 26.8613 243.634 27.032L235.25 30.68V32.92L243.634 37.72C243.954 37.8693 244.114 38.2107 244.114 38.744V52.664C244.114 52.8347 244.082 53.016 244.018 53.208C243.975 53.3787 243.868 53.5173 243.698 53.624L233.65 58.616C233.522 58.7013 233.362 58.7867 233.17 58.872C232.999 58.9573 232.828 59 232.658 59H222.962ZM248.024 59C247.491 59 247.224 58.7333 247.224 58.2V49.592C247.224 49.336 247.235 49.1333 247.256 48.984C247.299 48.8133 247.427 48.664 247.64 48.536L254.648 44.632V42.456L247.736 38.744C247.395 38.5307 247.224 38.2107 247.224 37.784V23.736C247.224 23.3947 247.246 23.1493 247.288 23C247.331 22.8293 247.48 22.648 247.736 22.456L256.184 16.76C256.355 16.632 256.536 16.536 256.728 16.472C256.92 16.3867 257.166 16.344 257.464 16.344H268.376C268.91 16.344 269.176 16.6107 269.176 17.144V26.072C269.176 26.5413 269.016 26.8613 268.696 27.032L260.312 30.68V32.92L268.696 37.72C269.016 37.8693 269.176 38.2107 269.176 38.744V52.664C269.176 52.8347 269.144 53.016 269.08 53.208C269.038 53.3787 268.931 53.5173 268.76 53.624L258.712 58.616C258.584 58.7013 258.424 58.7867 258.232 58.872C258.062 58.9573 257.891 59 257.72 59H248.024ZM273.215 59C272.681 59 272.415 58.7333 272.415 58.2V17.144C272.415 16.6107 272.681 16.344 273.215 16.344H292.447C293.001 16.344 293.428 16.4827 293.727 16.76L301.087 24.056C301.321 24.2693 301.471 24.4507 301.535 24.6C301.599 24.7493 301.631 24.9947 301.631 25.336V34.104C301.631 34.3813 301.46 34.6907 301.119 35.032L296.831 39.32L295.807 40.216L298.015 43.416L301.951 51.128C302.057 51.32 302.121 51.512 302.143 51.704C302.185 51.8747 302.207 52.088 302.207 52.344V58.2C302.207 58.7333 301.94 59 301.407 59H291.519C291.049 59 290.729 58.7867 290.559 58.36L286.079 46.584H285.279V58.2C285.279 58.7333 285.012 59 284.479 59H273.215ZM287.007 33.976C288.009 33.976 288.788 33.688 289.343 33.112C289.897 32.536 290.175 31.736 290.175 30.712C290.175 29.688 289.897 28.8987 289.343 28.344C288.788 27.768 288.009 27.48 287.007 27.48C286.025 27.48 285.257 27.768 284.703 28.344C284.148 28.8987 283.871 29.688 283.871 30.712C283.871 31.736 284.148 32.536 284.703 33.112C285.257 33.688 286.025 33.976 287.007 33.976Z" fill="white"/>
<path d="M21.0768 58.456L25.3194 54.2134V54.2134L21.0768 58.456ZM14.6768 52.056L10.4341 56.2986L14.6768 52.056ZM27.0927 44.504H21.0927V50.504H27.0927V44.504ZM30.4207 44.504V50.504H36.4207V44.504H30.4207ZM43.3488 44.504H37.3488V50.504H43.3488V44.504ZM46.6447 44.504V50.504H52.6447V44.504H46.6447ZM59.0927 52.056L54.8501 47.8134V47.8134L59.0927 52.056ZM52.6927 58.456L56.9354 62.6987L56.9354 62.6986L52.6927 58.456ZM43.0287 58.456L47.3979 54.3438L47.3296 54.2711L47.2588 54.2008L43.0287 58.456ZM37.6208 53.08L41.8508 48.8248L40.0956 47.08H37.6208V53.08ZM36.1487 53.08V47.08H33.6739L31.9187 48.8248L36.1487 53.08ZM30.7408 58.456L26.5107 54.2008L26.4399 54.2711L26.3716 54.3438L30.7408 58.456ZM22.3568 53C22.87 53 23.4439 53.0991 24.0156 53.342C24.582 53.5827 25.0146 53.9085 25.3194 54.2134L16.8341 62.6986C18.2652 64.1297 20.1962 65 22.3568 65V53ZM25.3194 54.2134L18.9194 47.8134L10.4341 56.2986L16.8341 62.6986L25.3194 54.2134ZM18.9194 47.8134C19.2938 48.1877 19.632 48.6727 19.8636 49.2517C20.0924 49.8236 20.1647 50.3557 20.1647 50.776H8.16475C8.16475 52.7722 8.894 54.7585 10.4341 56.2986L18.9194 47.8134ZM20.1647 50.776V17.144H8.16475V50.776H20.1647ZM20.1647 17.144C20.1647 17.8022 19.9961 19.3979 18.6074 20.7866C17.2186 22.1754 15.623 22.344 14.9648 22.344V10.344C13.7732 10.344 11.7775 10.6459 10.1221 12.3014C8.46671 13.9568 8.16475 15.9525 8.16475 17.144H20.1647ZM14.9648 22.344H26.2928V10.344H14.9648V22.344ZM26.2928 22.344C25.6346 22.344 24.0389 22.1754 22.6501 20.7866C21.2614 19.3979 21.0927 17.8022 21.0927 17.144H33.0927C33.0927 15.9525 32.7908 13.9568 31.1354 12.3014C29.48 10.6459 27.4843 10.344 26.2928 10.344V22.344ZM21.0927 17.144V44.504H33.0927V17.144H21.0927ZM27.0927 50.504H30.4207V38.504H27.0927V50.504ZM36.4207 44.504V17.144H24.4207V44.504H36.4207ZM36.4207 17.144C36.4207 17.8022 36.2521 19.3979 34.8634 20.7866C33.4746 22.1754 31.879 22.344 31.2207 22.344V10.344C30.0292 10.344 28.0335 10.6459 26.3781 12.3014C24.7227 13.9568 24.4207 15.9525 24.4207 17.144H36.4207ZM31.2207 22.344H42.5488V10.344H31.2207V22.344ZM42.5488 22.344C41.8905 22.344 40.2949 22.1754 38.9061 20.7866C37.5174 19.3979 37.3488 17.8022 37.3488 17.144H49.3488C49.3488 15.9525 49.0468 13.9568 47.3914 12.3014C45.736 10.6459 43.7403 10.344 42.5488 10.344V22.344ZM37.3488 17.144V44.504H49.3488V17.144H37.3488ZM43.3488 50.504H46.6447V38.504H43.3488V50.504ZM52.6447 44.504V17.144H40.6447V44.504H52.6447ZM52.6447 17.144C52.6447 17.8022 52.4761 19.3979 51.0874 20.7866C49.6987 22.1754 48.103 22.344 47.4447 22.344V10.344C46.2532 10.344 44.2575 10.6459 42.6021 12.3014C40.9467 13.9568 40.6447 15.9525 40.6447 17.144H52.6447ZM47.4447 22.344H58.8047V10.344H47.4447V22.344ZM58.8047 22.344C58.1465 22.344 56.5509 22.1754 55.1621 20.7866C53.7734 19.3979 53.6048 17.8022 53.6048 17.144H65.6048C65.6048 15.9525 65.3028 13.9568 63.6474 12.3014C61.992 10.6459 59.9963 10.344 58.8047 10.344V22.344ZM53.6048 17.144V50.776H65.6048V17.144H53.6048ZM53.6048 50.776C53.6048 50.3557 53.6771 49.8236 53.9059 49.2517C54.1375 48.6727 54.4757 48.1877 54.8501 47.8134L63.3354 56.2986C64.8755 54.7585 65.6048 52.7722 65.6048 50.776H53.6048ZM54.8501 47.8134L48.4501 54.2134L56.9354 62.6986L63.3354 56.2986L54.8501 47.8134ZM48.4501 54.2133C48.755 53.9085 49.1875 53.5827 49.7539 53.342C50.3256 53.0991 50.8995 53 51.4128 53V65C53.5733 65 55.5043 64.1297 56.9354 62.6987L48.4501 54.2133ZM51.4128 53H44.3087V65H51.4128V53ZM44.3087 53C44.7747 53 45.3487 53.0858 45.9516 53.342C46.5582 53.5998 47.0422 53.9658 47.3979 54.3438L38.6596 62.5682C40.1702 64.1732 42.1948 65 44.3087 65V53ZM47.2588 54.2008L41.8508 48.8248L33.3907 57.3352L38.7987 62.7112L47.2588 54.2008ZM37.6208 47.08H36.1487V59.08H37.6208V47.08ZM31.9187 48.8248L26.5107 54.2008L34.9708 62.7112L40.3788 57.3352L31.9187 48.8248ZM26.3716 54.3438C26.7273 53.9658 27.2113 53.5998 27.8179 53.342C28.4208 53.0858 28.9948 53 29.4608 53V65C31.5747 65 33.5993 64.1732 35.1099 62.5682L26.3716 54.3438ZM29.4608 53H22.3568V65H29.4608V53ZM63.7773 53C64.4355 53 66.0311 53.1686 67.4199 54.5574C68.8086 55.9461 68.9772 57.5418 68.9772 58.2H56.9772C56.9772 59.3915 57.2792 61.3872 58.9346 63.0426C60.59 64.6981 62.5857 65 63.7773 65V53ZM68.9772 58.2V17.144H56.9772V58.2H68.9772ZM68.9772 17.144C68.9772 17.8022 68.8086 19.3979 67.4199 20.7866C66.0311 22.1754 64.4355 22.344 63.7773 22.344V10.344C62.5857 10.344 60.59 10.6459 58.9346 12.3014C57.2792 13.9568 56.9772 15.9525 56.9772 17.144H68.9772ZM63.7773 22.344H75.1053V10.344H63.7773V22.344ZM75.1053 22.344C74.4471 22.344 72.8514 22.1754 71.4626 20.7866C70.0739 19.3979 69.9052 17.8022 69.9052 17.144H81.9052C81.9052 15.9525 81.6033 13.9568 79.9479 12.3014C78.2925 10.6459 76.2968 10.344 75.1053 10.344V22.344ZM69.9052 17.144V58.2H81.9052V17.144H69.9052ZM69.9052 58.2C69.9052 57.5418 70.0739 55.9461 71.4626 54.5574C72.8513 53.1686 74.4471 53 75.1053 53V65C76.2968 65 78.2925 64.6981 79.9479 63.0426C81.6033 61.3872 81.9052 59.3915 81.9052 58.2H69.9052ZM75.1053 53H63.7773V65H75.1053V53ZM92.2177 30.264H86.2177V36.264H92.2177V30.264ZM93.1777 30.264V36.264H97.8172L98.9847 31.7738L93.1777 30.264ZM95.2578 22.264L101.065 23.7738L101.08 23.7147L101.094 23.6553L95.2578 22.264ZM96.5697 16.76L102.406 18.1513L102.417 18.1065L102.427 18.0616L96.5697 16.76ZM108.858 25.368L114.067 28.3448L114.15 28.2002L114.224 28.0513L108.858 25.368ZM108.602 25.88L103.119 23.4431L103.117 23.4463L108.602 25.88ZM104.058 36.12L109.355 38.9377L109.455 38.749L109.542 38.5536L104.058 36.12ZM103.258 37.624L97.9605 34.8063L96.4636 37.6205L97.9577 40.4363L103.258 37.624ZM104.09 39.192L109.466 36.528L109.429 36.4533L109.39 36.3797L104.09 39.192ZM109.402 49.912L104.026 52.576L104.157 52.8411L104.314 53.092L109.402 49.912ZM109.594 50.456L103.63 51.1185L103.675 51.5197L103.773 51.9113L109.594 50.456ZM97.5298 58.904L95.6324 64.5961L95.7186 64.6248L95.8057 64.651L97.5298 58.904ZM97.1458 58.52L91.4154 60.2984L91.4339 60.3581L91.4537 60.4174L97.1458 58.52ZM95.1297 52.024L100.86 50.2456L100.845 50.1957L100.828 50.1461L95.1297 52.024ZM93.2737 46.392L98.9723 44.5141L97.6139 40.392H93.2737V46.392ZM92.2177 46.392V40.392H86.2177V46.392H92.2177ZM80.0898 53C80.748 53 82.3436 53.1686 83.7324 54.5574C85.1211 55.9461 85.2897 57.5418 85.2897 58.2H73.2897C73.2897 59.3915 73.5917 61.3872 75.2471 63.0426C76.9025 64.6981 78.8982 65 80.0898 65V53ZM85.2897 58.2V17.144H73.2897V58.2H85.2897ZM85.2897 17.144C85.2897 17.8022 85.1211 19.3979 83.7324 20.7866C82.3436 22.1754 80.748 22.344 80.0898 22.344V10.344C78.8982 10.344 76.9025 10.6459 75.2471 12.3014C73.5917 13.9568 73.2897 15.9525 73.2897 17.144H85.2897ZM80.0898 22.344H91.4178V10.344H80.0898V22.344ZM91.4178 22.344C90.7596 22.344 89.1639 22.1754 87.7751 20.7866C86.3864 19.3979 86.2177 17.8022 86.2177 17.144H98.2177C98.2177 15.9525 97.9158 13.9568 96.2604 12.3014C94.605 10.6459 92.6093 10.344 91.4178 10.344V22.344ZM86.2177 17.144V30.264H98.2177V17.144H86.2177ZM92.2177 36.264H93.1777V24.264H92.2177V36.264ZM98.9847 31.7738L101.065 23.7738L89.4508 20.7542L87.3708 28.7542L98.9847 31.7738ZM101.094 23.6553L102.406 18.1513L90.7333 15.3687L89.4213 20.8727L101.094 23.6553ZM102.427 18.0616C102.218 19.0008 101.712 20.0709 100.752 20.9509C99.8272 21.7987 98.8289 22.1518 98.1304 22.2915L95.7771 10.5245C94.8653 10.7069 93.6963 11.1399 92.6434 12.1051C91.5554 13.1024 90.964 14.3272 90.7126 15.4584L102.427 18.0616ZM98.1304 22.2915C97.964 22.3248 97.7833 22.344 97.5938 22.344V10.344C96.9775 10.344 96.3701 10.4059 95.7771 10.5245L98.1304 22.2915ZM97.5938 22.344H108.186V10.344H97.5938V22.344ZM108.186 22.344C107.528 22.344 105.932 22.1754 104.543 20.7866C103.154 19.3979 102.986 17.8022 102.986 17.144H114.986C114.986 15.9525 114.684 13.9568 113.028 12.3014C111.373 10.6459 109.377 10.344 108.186 10.344V22.344ZM102.986 17.144V24.824H114.986V17.144H102.986ZM102.986 24.824C102.986 24.0906 103.157 23.3526 103.491 22.6847L114.224 28.0513C114.729 27.0421 114.986 25.9414 114.986 24.824H102.986ZM103.648 22.3912C103.444 22.7491 103.269 23.1054 103.119 23.4431L114.085 28.3168C114.094 28.2957 114.098 28.2877 114.096 28.2913C114.095 28.2947 114.085 28.3134 114.067 28.3448L103.648 22.3912ZM103.117 23.4463L98.5735 33.6863L109.542 38.5536L114.086 28.3136L103.117 23.4463ZM98.7605 33.3023L97.9605 34.8063L108.555 40.4417L109.355 38.9377L98.7605 33.3023ZM97.9577 40.4363L98.7897 42.0043L109.39 36.3797L108.558 34.8117L97.9577 40.4363ZM98.7136 41.856L104.026 52.576L114.778 47.248L109.466 36.528L98.7136 41.856ZM104.314 53.092C103.964 52.5326 103.713 51.8584 103.63 51.1185L115.557 49.7935C115.432 48.6696 115.053 47.6328 114.49 46.732L104.314 53.092ZM103.773 51.9113C103.705 51.6381 103.679 51.4297 103.669 51.3209C103.658 51.2064 103.658 51.1376 103.658 51.128H115.658C115.658 50.6068 115.624 49.8386 115.415 49.0007L103.773 51.9113ZM103.658 51.128V58.2H115.658V51.128H103.658ZM103.658 58.2C103.658 57.5418 103.826 55.9461 105.215 54.5574C106.604 53.1686 108.2 53 108.858 53V65C110.049 65 112.045 64.6981 113.7 63.0426C115.356 61.3872 115.658 59.3915 115.658 58.2H103.658ZM108.858 53H98.1057V65H108.858V53ZM98.1057 53C98.6657 53 99.0682 53.1013 99.2538 53.157L95.8057 64.651C96.418 64.8346 97.2045 65 98.1057 65V53ZM99.4271 53.2119C100.109 53.4393 100.863 53.8484 101.532 54.5174C102.201 55.1863 102.61 55.9404 102.838 56.6226L91.4537 60.4174C92.1149 62.401 93.6488 63.9349 95.6324 64.5961L99.4271 53.2119ZM102.876 56.7416L100.86 50.2456L89.3994 53.8024L91.4154 60.2984L102.876 56.7416ZM100.828 50.1461L98.9723 44.5141L87.5752 48.2699L89.4312 53.9019L100.828 50.1461ZM93.2737 40.392H92.2177V52.392H93.2737V40.392ZM86.2177 46.392V58.2H98.2177V46.392H86.2177ZM86.2177 58.2C86.2177 57.5418 86.3864 55.9461 87.7751 54.5574C89.1638 53.1686 90.7596 53 91.4178 53V65C92.6093 65 94.605 64.6981 96.2604 63.0426C97.9158 61.3872 98.2177 59.3915 98.2177 58.2H86.2177ZM91.4178 53H80.0898V65H91.4178V53ZM113.652 53C114.31 53 115.906 53.1686 117.295 54.5574C118.684 55.9461 118.852 57.5418 118.852 58.2H106.852C106.852 59.3915 107.154 61.3872 108.81 63.0426C110.465 64.6981 112.461 65 113.652 65V53ZM118.852 58.2V17.144H106.852V58.2H118.852ZM118.852 17.144C118.852 17.8022 118.684 19.3979 117.295 20.7866C115.906 22.1754 114.31 22.344 113.652 22.344V10.344C112.461 10.344 110.465 10.6459 108.81 12.3014C107.154 13.9568 106.852 15.9525 106.852 17.144H118.852ZM113.652 22.344H124.98V10.344H113.652V22.344ZM124.98 22.344C124.322 22.344 122.726 22.1754 121.338 20.7866C119.949 19.3979 119.78 17.8022 119.78 17.144H131.78C131.78 15.9525 131.478 13.9568 129.823 12.3014C128.167 10.6459 126.172 10.344 124.98 10.344V22.344ZM119.78 17.144V58.2H131.78V17.144H119.78ZM119.78 58.2C119.78 57.5418 119.949 55.9461 121.338 54.5574C122.726 53.1686 124.322 53 124.98 53V65C126.172 65 128.167 64.6981 129.823 63.0426C131.478 61.3872 131.78 59.3915 131.78 58.2H119.78ZM124.98 53H113.652V65H124.98V53ZM136.077 58.456L140.319 54.2134V54.2134L136.077 58.456ZM129.677 52.056L125.434 56.2986L129.677 52.056ZM129.677 23.256L125.434 19.0134L125.37 19.0776L125.308 19.1438L129.677 23.256ZM136.077 16.856L131.965 12.4868L131.898 12.5491L131.834 12.6134L136.077 16.856ZM142.413 28.888L146.427 33.3478L146.544 33.2422L146.655 33.1306L142.413 28.888ZM142.413 46.456L138.17 50.6986V50.6986L142.413 46.456ZM148.045 46.776V52.776H154.045V46.776H148.045ZM148.045 41.528H154.045V35.6599L148.178 35.5295L148.045 41.528ZM145.165 41.464L145.298 35.4655L145.231 35.464H145.165V41.464ZM158.957 52.056L154.845 47.6868L154.778 47.7491L154.714 47.8134L158.957 52.056ZM152.557 58.456L148.314 54.2134L148.25 54.2776L148.188 54.3438L152.557 58.456ZM137.357 53C137.87 53 138.444 53.0991 139.016 53.342C139.582 53.5827 140.015 53.9085 140.319 54.2134L131.834 62.6986C133.265 64.1297 135.196 65 137.357 65V53ZM140.319 54.2134L133.919 47.8134L125.434 56.2986L131.834 62.6986L140.319 54.2134ZM133.919 47.8134C134.294 48.1877 134.632 48.6727 134.864 49.2517C135.092 49.8236 135.165 50.3557 135.165 50.776H123.165C123.165 52.7722 123.894 54.7585 125.434 56.2986L133.919 47.8134ZM135.165 50.776V24.536H123.165V50.776H135.165ZM135.165 24.536C135.165 25.0017 135.081 25.534 134.864 26.0763C134.647 26.6171 134.347 27.0484 134.046 27.3682L125.308 19.1438C123.936 20.6009 123.165 22.4916 123.165 24.536H135.165ZM133.919 27.4986L140.319 21.0986L131.834 12.6134L125.434 19.0134L133.919 27.4986ZM140.189 21.2252C139.869 21.5261 139.438 21.8265 138.897 22.0429C138.355 22.2598 137.822 22.344 137.357 22.344V10.344C135.312 10.344 133.422 11.1154 131.965 12.4868L140.189 21.2252ZM137.357 22.344H156.653V10.344H137.357V22.344ZM156.653 22.344C155.995 22.344 154.399 22.1754 153.01 20.7866C151.621 19.3979 151.453 17.8022 151.453 17.144H163.453C163.453 15.9525 163.151 13.9568 161.495 12.3014C159.84 10.6459 157.844 10.344 156.653 10.344V22.344ZM151.453 17.144V27.768H163.453V17.144H151.453ZM151.453 27.768C151.453 27.1098 151.621 25.5141 153.01 24.1254C154.399 22.7366 155.995 22.568 156.653 22.568V34.568C157.844 34.568 159.84 34.266 161.495 32.6106C163.151 30.9552 163.453 28.9595 163.453 27.768H151.453ZM156.653 22.568H143.181V34.568H156.653V22.568ZM143.181 22.568C141.273 22.568 139.496 23.3196 138.17 24.6454L146.655 33.1306C146.257 33.5291 145.729 33.9128 145.072 34.1865C144.414 34.4606 143.762 34.568 143.181 34.568V22.568ZM138.399 24.4282C136.864 25.8095 136.093 27.7028 136.093 29.624H148.093C148.093 30.2017 147.986 30.8928 147.675 31.6084C147.362 32.3298 146.911 32.9117 146.427 33.3478L138.399 24.4282ZM136.093 29.624V45.72H148.093V29.624H136.093ZM136.093 45.72C136.093 47.7364 136.941 49.469 138.17 50.6986L146.655 42.2134C147.013 42.5714 147.392 43.0694 147.675 43.7196C147.962 44.3797 148.093 45.0664 148.093 45.72H136.093ZM138.17 50.6986C139.496 52.0244 141.273 52.776 143.181 52.776V40.776C143.762 40.776 144.414 40.8834 145.072 41.1575C145.729 41.4312 146.257 41.8149 146.655 42.2134L138.17 50.6986ZM143.181 52.776H148.045V40.776H143.181V52.776ZM154.045 46.776V41.528H142.045V46.776H154.045ZM148.178 35.5295L145.298 35.4655L145.031 47.4625L147.911 47.5265L148.178 35.5295ZM145.165 35.464C145.823 35.464 147.419 35.6326 148.807 37.0214C150.196 38.4101 150.365 40.0058 150.365 40.664H138.365C138.365 41.8555 138.667 43.8512 140.322 45.5066C141.978 47.1621 143.973 47.464 145.165 47.464V35.464ZM150.365 40.664V32.824H138.365V40.664H150.365ZM150.365 32.824C150.365 33.4822 150.196 35.0779 148.807 36.4666C147.419 37.8554 145.823 38.024 145.165 38.024V26.024C143.973 26.024 141.978 26.3259 140.322 27.9814C138.667 29.6368 138.365 31.6325 138.365 32.824H150.365ZM145.165 38.024H158.701V26.024H145.165V38.024ZM158.701 38.024C158.043 38.024 156.447 37.8554 155.058 36.4666C153.669 35.0779 153.501 33.4822 153.501 32.824H165.501C165.501 31.6325 165.199 29.6368 163.543 27.9814C161.888 26.3259 159.892 26.024 158.701 26.024V38.024ZM153.501 32.824V50.776H165.501V32.824H153.501ZM153.501 50.776C153.501 50.3101 153.587 49.7361 153.843 49.1332C154.101 48.5265 154.467 48.0425 154.845 47.6868L163.069 56.4252C164.674 54.9146 165.501 52.8899 165.501 50.776H153.501ZM154.714 47.8134L148.314 54.2134L156.799 62.6986L163.199 56.2986L154.714 47.8134ZM148.188 54.3438C148.543 53.9658 149.027 53.5998 149.634 53.342C150.237 53.0858 150.811 53 151.277 53V65C153.391 65 155.415 64.1732 156.926 62.5682L148.188 54.3438ZM151.277 53H137.357V65H151.277V53ZM169.577 58.456L173.819 54.2134V54.2134L169.577 58.456ZM163.177 52.056L158.934 56.2986L163.177 52.056ZM178.729 46.776V52.776H184.729V46.776H178.729ZM170.857 53C171.37 53 171.944 53.0991 172.516 53.342C173.082 53.5827 173.515 53.9085 173.819 54.2134L165.334 62.6986C166.765 64.1297 168.696 65 170.857 65V53ZM173.819 54.2134L167.419 47.8134L158.934 56.2986L165.334 62.6986L173.819 54.2134ZM167.419 47.8134C167.794 48.1877 168.132 48.6727 168.364 49.2517C168.592 49.8236 168.665 50.3557 168.665 50.776H156.665C156.665 52.7722 157.394 54.7585 158.934 56.2986L167.419 47.8134ZM168.665 50.776V17.144H156.665V50.776H168.665ZM168.665 17.144C168.665 17.8022 168.496 19.3979 167.107 20.7866C165.719 22.1754 164.123 22.344 163.465 22.344V10.344C162.273 10.344 160.278 10.6459 158.622 12.3014C156.967 13.9568 156.665 15.9525 156.665 17.144H168.665ZM163.465 22.344H174.793V10.344H163.465V22.344ZM174.793 22.344C174.135 22.344 172.539 22.1754 171.15 20.7866C169.761 19.3979 169.593 17.8022 169.593 17.144H181.593C181.593 15.9525 181.291 13.9568 179.635 12.3014C177.98 10.6459 175.984 10.344 174.793 10.344V22.344ZM169.593 17.144V45.528H181.593V17.144H169.593ZM169.593 45.528C169.593 46.8689 169.932 48.9766 171.662 50.7066C173.392 52.4367 175.5 52.776 176.841 52.776V40.776C177.35 40.776 178.833 40.9073 180.147 42.2214C181.461 43.5354 181.593 45.0191 181.593 45.528H169.593ZM176.841 52.776H178.729V40.776H176.841V52.776ZM184.729 46.776V17.144H172.729V46.776H184.729ZM184.729 17.144C184.729 17.8022 184.56 19.3979 183.171 20.7866C181.783 22.1754 180.187 22.344 179.529 22.344V10.344C178.337 10.344 176.342 10.6459 174.686 12.3014C173.031 13.9568 172.729 15.9525 172.729 17.144H184.729ZM179.529 22.344H190.889V10.344H179.529V22.344ZM190.889 22.344C190.231 22.344 188.635 22.1754 187.246 20.7866C185.857 19.3979 185.689 17.8022 185.689 17.144H197.689C197.689 15.9525 197.387 13.9568 195.731 12.3014C194.076 10.6459 192.08 10.344 190.889 10.344V22.344ZM185.689 17.144V58.2H197.689V17.144H185.689ZM185.689 58.2C185.689 57.5418 185.857 55.9461 187.246 54.5574C188.635 53.1686 190.231 53 190.889 53V65C192.08 65 194.076 64.6981 195.731 63.0426C197.387 61.3872 197.689 59.3915 197.689 58.2H185.689ZM190.889 53H170.857V65H190.889V53ZM207.968 28.568V22.568H201.968V28.568H207.968ZM207.968 32.088H201.968V38.088H207.968V32.088ZM207.968 43.256V37.256H201.968V43.256H207.968ZM207.968 46.776H201.968V52.776H207.968V46.776ZM195.84 53C196.498 53 198.094 53.1686 199.482 54.5574C200.871 55.9461 201.04 57.5418 201.04 58.2H189.04C189.04 59.3915 189.342 61.3872 190.997 63.0426C192.653 64.6981 194.648 65 195.84 65V53ZM201.04 58.2V17.144H189.04V58.2H201.04ZM201.04 17.144C201.04 17.8022 200.871 19.3979 199.482 20.7866C198.094 22.1754 196.498 22.344 195.84 22.344V10.344C194.648 10.344 192.653 10.6459 190.997 12.3014C189.342 13.9568 189.04 15.9525 189.04 17.144H201.04ZM195.84 22.344H218.112V10.344H195.84V22.344ZM218.112 22.344C217.454 22.344 215.858 22.1754 214.469 20.7866C213.08 19.3979 212.912 17.8022 212.912 17.144H224.912C224.912 15.9525 224.61 13.9568 222.954 12.3014C221.299 10.6459 219.303 10.344 218.112 10.344V22.344ZM212.912 17.144V27.768H224.912V17.144H212.912ZM212.912 27.768C212.912 27.1098 213.08 25.5141 214.469 24.1254C215.858 22.7366 217.454 22.568 218.112 22.568V34.568C219.303 34.568 221.299 34.266 222.954 32.6106C224.61 30.9552 224.912 28.9595 224.912 27.768H212.912ZM218.112 22.568H207.968V34.568H218.112V22.568ZM201.968 28.568V32.088H213.968V28.568H201.968ZM207.968 38.088H217.952V26.088H207.968V38.088ZM217.952 38.088C217.294 38.088 215.698 37.9194 214.309 36.5306C212.92 35.1419 212.752 33.5462 212.752 32.888H224.752C224.752 31.6965 224.45 29.7008 222.794 28.0454C221.139 26.3899 219.143 26.088 217.952 26.088V38.088ZM212.752 32.888V42.456H224.752V32.888H212.752ZM212.752 42.456C212.752 41.7978 212.92 40.2021 214.309 38.8134C215.698 37.4246 217.294 37.256 217.952 37.256V49.256C219.143 49.256 221.139 48.9541 222.794 47.2986C224.45 45.6432 224.752 43.6475 224.752 42.456H212.752ZM217.952 37.256H207.968V49.256H217.952V37.256ZM201.968 43.256V46.776H213.968V43.256H201.968ZM207.968 52.776H218.112V40.776H207.968V52.776ZM218.112 52.776C217.454 52.776 215.858 52.6074 214.469 51.2186C213.08 49.8299 212.912 48.2342 212.912 47.576H224.912C224.912 46.3845 224.61 44.3888 222.954 42.7334C221.299 41.0779 219.303 40.776 218.112 40.776V52.776ZM212.912 47.576V58.2H224.912V47.576H212.912ZM212.912 58.2C212.912 57.5418 213.08 55.9461 214.469 54.5574C215.858 53.1686 217.454 53 218.112 53V65C219.303 65 221.299 64.6981 222.954 63.0426C224.61 61.3872 224.912 59.3915 224.912 58.2H212.912ZM218.112 53H195.84V65H218.112V53ZM222.194 48.984L216.373 47.5288L216.298 47.8291L216.254 48.1355L222.194 48.984ZM222.578 48.536L219.658 43.2944L219.574 43.3414L219.491 43.391L222.578 48.536ZM229.586 44.632L232.506 49.8736L235.586 48.1577V44.632H229.586ZM229.586 42.456H235.586V38.8677L232.424 37.17L229.586 42.456ZM222.674 38.744L219.494 43.832L219.661 43.9366L219.835 44.03L222.674 38.744ZM222.226 23L227.995 24.6483L228.022 24.5522L228.047 24.4552L222.226 23ZM222.674 22.456L219.319 17.4812L219.194 17.5655L219.074 17.656L222.674 22.456ZM231.122 16.76L234.476 21.7348L234.601 21.6505L234.722 21.56L231.122 16.76ZM231.666 16.472L233.563 22.1641L233.838 22.0725L234.103 21.9549L231.666 16.472ZM243.634 27.032L246.028 32.5337L246.247 32.4385L246.457 32.3261L243.634 27.032ZM235.25 30.68L232.856 25.1782L229.25 26.7473V30.68H235.25ZM235.25 32.92H229.25V36.3986L232.269 38.127L235.25 32.92ZM243.634 37.72L240.653 42.927L240.87 43.0513L241.096 43.1571L243.634 37.72ZM244.018 53.208L238.326 51.3107L238.253 51.5292L238.197 51.7528L244.018 53.208ZM243.698 53.624L246.367 58.9974L246.63 58.8671L246.878 58.712L243.698 53.624ZM233.65 58.616L230.98 53.2426L230.639 53.4122L230.322 53.6237L233.65 58.616ZM233.17 58.872L230.733 53.3891L230.608 53.4445L230.486 53.5054L233.17 58.872ZM222.962 53C223.62 53 225.216 53.1686 226.604 54.5574C227.993 55.9461 228.162 57.5418 228.162 58.2H216.162C216.162 59.3915 216.464 61.3872 218.119 63.0426C219.775 64.6981 221.77 65 222.962 65V53ZM228.162 58.2V49.592H216.162V58.2H228.162ZM228.162 49.592C228.162 49.5434 228.163 49.5368 228.161 49.5634C228.161 49.5779 228.159 49.6073 228.155 49.6492C228.151 49.6905 228.145 49.753 228.133 49.8325L216.254 48.1355C216.174 48.6928 216.162 49.2184 216.162 49.592H228.162ZM228.015 50.4392C227.535 52.3568 226.244 53.3331 225.665 53.681L219.491 43.391C218.484 43.9949 216.938 45.2698 216.373 47.5288L228.015 50.4392ZM225.498 53.7775L232.506 49.8736L226.666 39.3904L219.658 43.2944L225.498 53.7775ZM235.586 44.632V42.456H223.586V44.632H235.586ZM232.424 37.17L225.513 33.458L219.835 44.03L226.747 47.742L232.424 37.17ZM225.854 33.656C226.474 34.0434 227.122 34.6546 227.584 35.5205C228.037 36.3709 228.162 37.1864 228.162 37.784H216.162C216.162 40.1296 217.275 42.4451 219.494 43.832L225.854 33.656ZM228.162 37.784V23.736H216.162V37.784H228.162ZM228.162 23.736C228.162 23.6781 228.164 23.7141 228.155 23.8158C228.151 23.8697 228.141 23.9648 228.12 24.0904C228.101 24.2111 228.064 24.4062 227.995 24.6483L216.457 21.3517C216.166 22.3678 216.162 23.3396 216.162 23.736H228.162ZM228.047 24.4552C227.792 25.474 227.312 26.1725 227.001 26.5502C226.686 26.9334 226.4 27.1612 226.274 27.256L219.074 17.656C218.513 18.0765 216.962 19.3146 216.405 21.5448L228.047 24.4552ZM226.028 27.4308L234.476 21.7348L227.768 11.7852L219.319 17.4812L226.028 27.4308ZM234.722 21.56C234.405 21.7979 234.015 22.0133 233.563 22.1641L229.768 10.7799C228.932 11.0586 228.18 11.4661 227.522 11.96L234.722 21.56ZM234.103 21.9549C233.276 22.3224 232.614 22.344 232.402 22.344V10.344C231.592 10.344 230.44 10.4509 229.229 10.9891L234.103 21.9549ZM232.402 22.344H243.314V10.344H232.402V22.344ZM243.314 22.344C242.656 22.344 241.06 22.1754 239.671 20.7866C238.282 19.3979 238.114 17.8022 238.114 17.144H250.114C250.114 15.9525 249.812 13.9568 248.156 12.3014C246.501 10.6459 244.505 10.344 243.314 10.344V22.344ZM238.114 17.144V26.072H250.114V17.144H238.114ZM238.114 26.072C238.114 25.6544 238.182 24.8721 238.627 23.9807C239.112 23.0116 239.888 22.2295 240.81 21.7379L246.457 32.3261C249.323 30.7975 250.114 27.9959 250.114 26.072H238.114ZM241.24 21.5302L232.856 25.1782L237.644 36.1818L246.028 32.5337L241.24 21.5302ZM229.25 30.68V32.92H241.25V30.68H229.25ZM232.269 38.127L240.653 42.927L246.615 32.513L238.231 27.713L232.269 38.127ZM241.096 43.1571C239.893 42.5953 239.034 41.6442 238.561 40.6346C238.146 39.7489 238.114 39.0173 238.114 38.744H250.114C250.114 37.2205 249.595 33.8809 246.171 32.2829L241.096 43.1571ZM238.114 38.744V52.664H250.114V38.744H238.114ZM238.114 52.664C238.114 52.0827 238.223 51.6199 238.326 51.3107L249.71 55.1053C249.941 54.4121 250.114 53.5866 250.114 52.664H238.114ZM238.197 51.7528C238.586 50.1971 239.576 49.1246 240.518 48.536L246.878 58.712C248.161 57.91 249.364 56.5603 249.839 54.6632L238.197 51.7528ZM241.028 48.2506L230.98 53.2426L236.319 63.9894L246.367 58.9974L241.028 48.2506ZM230.322 53.6237C230.446 53.5404 230.547 53.4837 230.61 53.4499C230.675 53.4155 230.718 53.3958 230.733 53.3891L235.607 64.3549C236.005 64.1778 236.486 63.9362 236.978 63.6083L230.322 53.6237ZM230.486 53.5054C231.05 53.2239 231.792 53 232.658 53V65C233.865 65 234.949 64.6908 235.853 64.2386L230.486 53.5054ZM232.658 53H222.962V65H232.658V53ZM247.256 48.984L241.435 47.5288L241.36 47.8291L241.317 48.1355L247.256 48.984ZM247.64 48.536L244.72 43.2944L244.636 43.3414L244.553 43.391L247.64 48.536ZM254.648 44.632L257.568 49.8736L260.648 48.1577V44.632H254.648ZM254.648 42.456H260.648V38.8677L257.487 37.17L254.648 42.456ZM247.736 38.744L244.556 43.832L244.724 43.9366L244.897 44.03L247.736 38.744ZM247.288 23L253.057 24.6483L253.085 24.5522L253.109 24.4552L247.288 23ZM247.736 22.456L244.382 17.4812L244.257 17.5655L244.136 17.656L247.736 22.456ZM256.184 16.76L259.538 21.7348L259.664 21.6505L259.784 21.56L256.184 16.76ZM256.728 16.472L258.626 22.1641L258.9 22.0725L259.165 21.9549L256.728 16.472ZM268.696 27.032L271.09 32.5337L271.309 32.4385L271.52 32.3261L268.696 27.032ZM260.312 30.68L257.918 25.1782L254.312 26.7473V30.68H260.312ZM260.312 32.92H254.312V36.3986L257.331 38.127L260.312 32.92ZM268.696 37.72L265.715 42.927L265.932 43.0513L266.159 43.1571L268.696 37.72ZM269.08 53.208L263.388 51.3107L263.315 51.5292L263.259 51.7528L269.08 53.208ZM268.76 53.624L271.43 58.9974L271.692 58.8671L271.94 58.712L268.76 53.624ZM258.712 58.616L256.043 53.2426L255.701 53.4122L255.384 53.6237L258.712 58.616ZM258.232 58.872L255.795 53.3891L255.671 53.4445L255.549 53.5054L258.232 58.872ZM248.024 53C248.682 53 250.278 53.1686 251.667 54.5574C253.056 55.9461 253.224 57.5418 253.224 58.2H241.224C241.224 59.3915 241.526 61.3872 243.182 63.0426C244.837 64.6981 246.833 65 248.024 65V53ZM253.224 58.2V49.592H241.224V58.2H253.224ZM253.224 49.592C253.224 49.5434 253.225 49.5368 253.224 49.5634C253.223 49.5779 253.221 49.6073 253.218 49.6492C253.214 49.6905 253.207 49.753 253.196 49.8325L241.317 48.1355C241.237 48.6928 241.224 49.2184 241.224 49.592H253.224ZM253.077 50.4392C252.598 52.3568 251.307 53.3331 250.727 53.681L244.553 43.391C243.547 43.9949 242 45.2698 241.435 47.5288L253.077 50.4392ZM250.56 53.7775L257.568 49.8736L251.728 39.3904L244.72 43.2944L250.56 53.7775ZM260.648 44.632V42.456H248.648V44.632H260.648ZM257.487 37.17L250.575 33.458L244.897 44.03L251.809 47.742L257.487 37.17ZM250.916 33.656C251.536 34.0434 252.185 34.6546 252.646 35.5205C253.1 36.3709 253.224 37.1864 253.224 37.784H241.224C241.224 40.1296 242.337 42.4451 244.556 43.832L250.916 33.656ZM253.224 37.784V23.736H241.224V37.784H253.224ZM253.224 23.736C253.224 23.6781 253.227 23.7141 253.218 23.8158C253.213 23.8697 253.203 23.9648 253.183 24.0904C253.163 24.2111 253.127 24.4062 253.057 24.6483L241.519 21.3517C241.229 22.3678 241.224 23.3396 241.224 23.736H253.224ZM253.109 24.4552C252.854 25.474 252.375 26.1725 252.064 26.5502C251.748 26.9334 251.463 27.1612 251.336 27.256L244.136 17.656C243.576 18.0765 242.025 19.3146 241.467 21.5448L253.109 24.4552ZM251.09 27.4308L259.538 21.7348L252.83 11.7852L244.382 17.4812L251.09 27.4308ZM259.784 21.56C259.467 21.7979 259.078 22.0133 258.626 22.1641L254.831 10.7799C253.995 11.0586 253.243 11.4661 252.584 11.96L259.784 21.56ZM259.165 21.9549C258.338 22.3224 257.677 22.344 257.464 22.344V10.344C256.654 10.344 255.502 10.4509 254.291 10.9891L259.165 21.9549ZM257.464 22.344H268.376V10.344H257.464V22.344ZM268.376 22.344C267.718 22.344 266.122 22.1754 264.734 20.7866C263.345 19.3979 263.176 17.8022 263.176 17.144H275.176C275.176 15.9525 274.874 13.9568 273.219 12.3014C271.563 10.6459 269.568 10.344 268.376 10.344V22.344ZM263.176 17.144V26.072H275.176V17.144H263.176ZM263.176 26.072C263.176 25.6544 263.244 24.8721 263.69 23.9807C264.174 23.0116 264.951 22.2295 265.873 21.7379L271.52 32.3261C274.386 30.7975 275.176 27.9959 275.176 26.072H263.176ZM266.302 21.5302L257.918 25.1782L262.706 36.1818L271.09 32.5337L266.302 21.5302ZM254.312 30.68V32.92H266.312V30.68H254.312ZM257.331 38.127L265.715 42.927L271.677 32.513L263.293 27.713L257.331 38.127ZM266.159 43.1571C264.955 42.5953 264.097 41.6442 263.624 40.6346C263.208 39.7489 263.176 39.0173 263.176 38.744H275.176C275.176 37.2205 274.658 33.8809 271.234 32.2829L266.159 43.1571ZM263.176 38.744V52.664H275.176V38.744H263.176ZM263.176 52.664C263.176 52.0827 263.285 51.6199 263.388 51.3107L274.772 55.1053C275.003 54.4121 275.176 53.5866 275.176 52.664H263.176ZM263.259 51.7528C263.648 50.1971 264.638 49.1246 265.58 48.536L271.94 58.712C273.223 57.91 274.427 56.5603 274.901 54.6632L263.259 51.7528ZM266.091 48.2506L256.043 53.2426L261.382 63.9894L271.43 58.9974L266.091 48.2506ZM255.384 53.6237C255.509 53.5404 255.609 53.4837 255.673 53.4499C255.737 53.4155 255.78 53.3958 255.795 53.3891L260.669 64.3549C261.068 64.1778 261.549 63.9362 262.04 63.6083L255.384 53.6237ZM255.549 53.5054C256.112 53.2239 256.854 53 257.72 53V65C258.927 65 260.011 64.6908 260.916 64.2386L255.549 53.5054ZM257.72 53H248.024V65H257.72V53ZM293.727 16.76L297.951 12.4989L297.881 12.4299L297.809 12.3632L293.727 16.76ZM301.087 24.056L296.863 28.3171L296.955 28.4084L297.051 28.4956L301.087 24.056ZM301.535 24.6L307.05 22.2365V22.2365L301.535 24.6ZM301.119 35.032L305.361 39.2746V39.2746L301.119 35.032ZM296.831 39.32L300.782 43.8355L300.932 43.7039L301.073 43.5626L296.831 39.32ZM295.807 40.216L291.856 35.7005L287.831 39.222L290.868 43.6236L295.807 40.216ZM298.015 43.416L303.359 40.6885L303.179 40.335L302.953 40.0084L298.015 43.416ZM301.951 51.128L296.607 53.8555L296.655 53.9496L296.706 54.0419L301.951 51.128ZM302.143 51.704L296.179 52.3666L296.224 52.7677L296.322 53.1592L302.143 51.704ZM290.559 58.36L284.951 60.4934L284.969 60.541L284.988 60.5883L290.559 58.36ZM286.079 46.584L291.687 44.4506L290.216 40.584H286.079V46.584ZM285.279 46.584V40.584H279.279V46.584H285.279ZM289.343 33.112L285.021 28.9501L289.343 33.112ZM289.343 28.344L285.021 32.5058L285.06 32.5466L285.1 32.5866L289.343 28.344ZM284.703 28.344L288.945 32.5866L288.985 32.5466L289.025 32.5058L284.703 28.344ZM284.703 33.112L280.381 37.2738V37.2739L284.703 33.112ZM273.215 53C273.873 53 275.469 53.1686 276.857 54.5574C278.246 55.9461 278.415 57.5418 278.415 58.2H266.415C266.415 59.3915 266.717 61.3872 268.372 63.0426C270.028 64.6981 272.023 65 273.215 65V53ZM278.415 58.2V17.144H266.415V58.2H278.415ZM278.415 17.144C278.415 17.8022 278.246 19.3979 276.857 20.7866C275.469 22.1754 273.873 22.344 273.215 22.344V10.344C272.023 10.344 270.028 10.6459 268.372 12.3014C266.717 13.9568 266.415 15.9525 266.415 17.144H278.415ZM273.215 22.344H292.447V10.344H273.215V22.344ZM292.447 22.344C292.041 22.344 290.804 22.2336 289.644 21.1568L297.809 12.3632C296.052 10.7317 293.962 10.344 292.447 10.344V22.344ZM289.503 21.0211L296.863 28.3171L305.311 19.7949L297.951 12.4989L289.503 21.0211ZM297.051 28.4956C297.023 28.4707 296.902 28.3597 296.743 28.1662C296.602 27.995 296.287 27.5878 296.02 26.9635L307.05 22.2365C306.458 20.8557 305.502 19.9607 305.123 19.6164L297.051 28.4956ZM296.02 26.9635C295.753 26.3406 295.679 25.8425 295.657 25.672C295.642 25.5597 295.636 25.4748 295.634 25.4248C295.631 25.3736 295.631 25.3427 295.631 25.336H307.631C307.631 24.8809 307.626 23.5815 307.05 22.2365L296.02 26.9635ZM295.631 25.336V34.104H307.631V25.336H295.631ZM295.631 34.104C295.631 32.9882 295.976 32.1407 296.249 31.6455C296.515 31.1639 296.783 30.8822 296.876 30.7894L305.361 39.2746C306.055 38.5809 307.631 36.8061 307.631 34.104H295.631ZM296.876 30.7894L292.588 35.0774L301.073 43.5626L305.361 39.2746L296.876 30.7894ZM292.88 34.8045L291.856 35.7005L299.758 44.7315L300.782 43.8355L292.88 34.8045ZM290.868 43.6236L293.076 46.8236L302.953 40.0084L300.745 36.8084L290.868 43.6236ZM292.671 46.1435L296.607 53.8555L307.295 48.4005L303.359 40.6885L292.671 46.1435ZM296.706 54.0419C296.479 53.6332 296.257 53.0663 296.179 52.3666L308.106 51.0414C307.986 49.9577 307.636 49.0068 307.196 48.2141L296.706 54.0419ZM296.322 53.1592C296.259 52.9094 296.233 52.7116 296.221 52.589C296.208 52.4637 296.207 52.3785 296.207 52.344H308.207C308.207 51.7984 308.166 51.0573 307.964 50.2488L296.322 53.1592ZM296.207 52.344V58.2H308.207V52.344H296.207ZM296.207 58.2C296.207 57.5418 296.375 55.9461 297.764 54.5574C299.153 53.1686 300.749 53 301.407 53V65C302.598 65 304.594 64.6981 306.249 63.0426C307.905 61.3872 308.207 59.3915 308.207 58.2H296.207ZM301.407 53H291.519V65H301.407V53ZM291.519 53C292.205 53 293.231 53.165 294.255 53.8477C295.288 54.5367 295.854 55.4419 296.13 56.1317L284.988 60.5883C285.434 61.7047 286.245 62.93 287.599 63.8323C288.943 64.7284 290.363 65 291.519 65V53ZM296.167 56.2266L291.687 44.4506L280.471 48.7174L284.951 60.4934L296.167 56.2266ZM286.079 40.584H285.279V52.584H286.079V40.584ZM279.279 46.584V58.2H291.279V46.584H279.279ZM279.279 58.2C279.279 57.5418 279.447 55.9461 280.836 54.5574C282.225 53.1686 283.821 53 284.479 53V65C285.67 65 287.666 64.6981 289.321 63.0426C290.977 61.3872 291.279 59.3915 291.279 58.2H279.279ZM284.479 53H273.215V65H284.479V53ZM287.007 39.976C289.201 39.976 291.707 39.3072 293.665 37.2738L285.021 28.9501C285.395 28.562 285.836 28.2898 286.261 28.1326C286.661 27.9849 286.941 27.976 287.007 27.976V39.976ZM293.665 37.2738C295.574 35.2909 296.175 32.8345 296.175 30.712H284.175C284.175 30.6906 284.177 30.4633 284.298 30.1147C284.427 29.743 284.66 29.3247 285.021 28.9501L293.665 37.2738ZM296.175 30.712C296.175 28.6026 295.579 26.0945 293.585 24.1014L285.1 32.5866C284.7 32.1866 284.445 31.7366 284.306 31.3409C284.176 30.9716 284.175 30.731 284.175 30.712H296.175ZM293.665 24.1822C291.707 22.1488 289.201 21.48 287.007 21.48V33.48C286.941 33.48 286.661 33.4711 286.261 33.3234C285.836 33.1662 285.395 32.894 285.021 32.5058L293.665 24.1822ZM287.007 21.48C284.791 21.48 282.315 22.174 280.381 24.1821L289.025 32.5058C288.665 32.8792 288.233 33.1522 287.801 33.314C287.394 33.4668 287.098 33.48 287.007 33.48V21.48ZM280.46 24.1014C278.467 26.0945 277.871 28.6026 277.871 30.712H289.871C289.871 30.731 289.869 30.9716 289.74 31.3409C289.6 31.7366 289.345 32.1866 288.945 32.5866L280.46 24.1014ZM277.871 30.712C277.871 32.8345 278.471 35.2909 280.381 37.2738L289.025 28.9501C289.385 29.3247 289.619 29.743 289.748 30.1147C289.869 30.4633 289.871 30.6907 289.871 30.712H277.871ZM280.381 37.2739C282.315 39.282 284.791 39.976 287.007 39.976V27.976C287.098 27.976 287.394 27.9892 287.801 28.142C288.233 28.3038 288.665 28.5768 289.025 28.9501L280.381 37.2739Z" fill="#FF0000" mask="url(#path-2-outside-1_4_2)"/>
</g>
<defs>
<clipPath id="clip0_4_2">
<rect width="316" height="75" fill="white"/>
</clipPath>
</defs>
</svg>
